# xmcd
#
# Track frame offsets: 
#        150
#        22821
#        40439
#        56136
#        75364
#        86541
#        103182
#        122087
#        140794
#        173340
#        192335
#        218583
#        237313
#        250880
#
# Disc length: 3551 seconds
#
# Revision: 0
# Processed by: cddbd v1.5.2PL0 Copyright (c) Steve Scherf et al.
# Submitted via: ExactAudioCopy v1.0b3
#
DISCID=b80ddd0e
DTITLE=Ana Popovic - Can You Stand The Heat
DYEAR=2013
DGENRE=Rock
TTITLE0=Can You Stand The Heat
TTITLE1=Can’t You See What You're Doing To Me
TTITLE2=Mo’ Better Love
TTITLE3=Object Of Obsession
TTITLE4=Boys' Night Out
TTITLE5=Ana Popovic feat Lucky Peterson - Hot Southern Night
TTITLE6=Every Kind Of People
TTITLE7=Ana’s Shuffle
TTITLE8=Blues For Mrs Pauline Leave My Boy Alone
TTITLE9=Leave Well Enough Alone aka High Maintenance You
TTITLE10=Tribe
TTITLE11=Rain Fall Down
TTITLE12=Growing Up Too Soon
TTITLE13=Ana Popovic feat Tommy Sims - Mo' Better Love
EXTD=
EXTT0=
EXTT1=
EXTT2=
EXTT3=
EXTT4=
EXTT5=
EXTT6=
EXTT7=
EXTT8=
EXTT9=
EXTT10=
EXTT11=
EXTT12=
EXTT13=
PLAYORDER=
